<svg width="16" height="17" viewBox="0 0 16 17" fill="none" xmlns="http://www.w3.org/2000/svg">
<path d="M2 9.14346C2 8.76111 2.31145 8.45115 2.69565 8.45115C3.07985 8.45115 3.39131 8.76111 3.39131 9.14346V13.8101C3.39131 14.1925 3.07985 14.5024 2.69565 14.5024C2.31145 14.5024 2 14.1925 2 13.8101V9.14346Z" fill="#1A1A1A"/>
<path d="M7.30439 3.19475C7.30439 2.8124 7.61584 2.50244 8.00004 2.50244C8.38424 2.50244 8.69569 2.8124 8.69569 3.19475V13.8101C8.69569 14.1925 8.38424 14.5024 8.00004 14.5024C7.61584 14.5024 7.30439 14.1925 7.30439 13.8101V3.19475Z" fill="#1A1A1A"/>
<path d="M12.6087 6.37425C12.6087 5.9919 12.9201 5.68194 13.3043 5.68194C13.6885 5.68194 14 5.9919 14 6.37425V13.8101C14 14.1925 13.6885 14.5024 13.3043 14.5024C12.9201 14.5024 12.6087 14.1925 12.6087 13.8101V6.37425Z" fill="#1A1A1A"/>
</svg>
