<svg width="16" height="17" viewBox="0 0 16 17" fill="none" xmlns="http://www.w3.org/2000/svg">
<g id="&#208;&#152;&#208;&#186;&#208;&#190;&#208;&#189;&#208;&#186;&#208;&#184; &#208;&#146;&#209;&#129;&#208;&#181;">
<path id="heart (1) 1 (Traced)" fill-rule="evenodd" clip-rule="evenodd" d="M4.11267 2.54554C2.4224 2.80351 1.10545 4.02488 0.733163 5.67971C0.643227 6.07954 0.64469 6.84505 0.736176 7.2641C0.82878 7.68814 0.916965 7.93318 1.12674 8.34922C1.43431 8.95932 1.81337 9.40419 2.80587 10.3198C3.81999 11.2555 4.92777 12.2046 6.63577 13.6012C7.173 14.0405 7.65017 14.4192 7.69615 14.4428C7.81291 14.5027 8.08392 14.522 8.21418 14.4798C8.33135 14.4418 8.45015 14.3508 9.46315 13.5226C11.6235 11.7564 13.4183 10.1748 14.0809 9.45314C14.4781 9.02062 14.6866 8.72862 14.8892 8.32104C15.0788 7.93969 15.1757 7.66492 15.266 7.25184C15.3493 6.87069 15.3566 6.10091 15.2804 5.74211C15.0141 4.48948 14.2278 3.47333 13.1022 2.92736C11.9965 2.39106 10.7369 2.36121 9.6122 2.84469C9.11902 3.05667 8.77136 3.29712 8.28021 3.76592L8.00082 4.03255L7.69193 3.73813C7.22285 3.29103 6.84847 3.03717 6.34329 2.82361C5.67377 2.5406 4.83235 2.4357 4.11267 2.54554ZM5.18983 3.81471C5.6146 3.88621 5.97242 4.02626 6.32123 4.25752C6.41593 4.32032 6.75168 4.62114 7.06734 4.92601C7.49995 5.3438 7.66954 5.48966 7.75606 5.51821C7.91588 5.57097 8.16562 5.56418 8.28695 5.50378C8.3422 5.47627 8.63275 5.21646 8.93263 4.92644C9.23251 4.63641 9.56387 4.33951 9.66899 4.26668C9.92155 4.09165 10.2406 3.94952 10.5793 3.86107C10.8149 3.79957 10.9162 3.789 11.2714 3.789C11.6304 3.789 11.7269 3.79929 11.9745 3.86378C13.2971 4.20837 14.1617 5.41998 14.0242 6.73611C13.9685 7.26869 13.7546 7.8099 13.4298 8.24023C13.1407 8.62315 12.2916 9.43773 11.1558 10.4217C10.0626 11.3688 8.04742 13.042 7.99999 13.042C7.98607 13.042 7.64785 12.7735 7.24839 12.4452C4.74098 10.3849 3.02781 8.84638 2.57925 8.25221C2.06877 7.576 1.86201 6.75167 2.00624 5.96759C2.26847 4.54182 3.71169 3.56586 5.18983 3.81471Z" fill="#1A1A1A"/>
</g>
</svg>
