<svg width="20" height="21" viewBox="0 0 20 21" fill="none" xmlns="http://www.w3.org/2000/svg">
<g id="&#208;&#152;&#208;&#186;&#208;&#190;&#208;&#189;&#208;&#186;&#208;&#184; &#208;&#146;&#209;&#129;&#208;&#181;">
<g id="Vector">
<path d="M6.27897 12.9669L6.88855 12.3881L7.16812 12.7427C6.17094 11.58 5.65573 9.99372 5.93826 8.30781C6.32883 5.99904 8.2567 4.15534 10.5834 3.87298C14.0985 3.44112 17.0568 6.39768 16.6247 9.91067C16.3421 12.236 14.4974 14.1628 12.1872 14.5531C10.5003 14.8355 8.91318 14.3206 7.7498 13.324L8.10694 13.6051L7.52544 14.2126L3.99377 17.7422C3.65307 18.0827 3.09631 18.0827 2.75561 17.7422C2.41491 17.4017 2.41491 16.8453 2.75561 16.5048L6.27897 12.9669ZM11.2649 12.9669C13.334 12.9669 15.0043 11.2976 15.0043 9.22966C15.0043 7.16173 13.334 5.49244 11.2649 5.49244C9.19571 5.49244 7.52544 7.16173 7.52544 9.22966C7.52544 11.2976 9.19571 12.9669 11.2649 12.9669Z" fill="#6A727B"/>
<path d="M11.6667 7.58093C11.6667 7.35081 11.4802 7.16427 11.2501 7.16427C11.02 7.16427 10.8334 7.35081 10.8334 7.58093V10.9143C10.8334 11.1444 11.02 11.3309 11.2501 11.3309C11.4802 11.3309 11.6667 11.1444 11.6667 10.9143V7.58093Z" fill="#6A727B"/>
<path d="M12.9167 9.66427C13.1469 9.66427 13.3334 9.47772 13.3334 9.2476C13.3334 9.01748 13.1469 8.83093 12.9167 8.83093H9.58342C9.3533 8.83093 9.16675 9.01748 9.16675 9.2476C9.16675 9.47772 9.3533 9.66427 9.58342 9.66427H12.9167Z" fill="#6A727B"/>
</g>
</g>
</svg>
